<svg xmlns="http://www.w3.org/2000/svg" width="24" height="19.19" viewBox="0 0 24 19.19">
  <metadata><?xpacket begin="﻿" id="W5M0MpCehiHzreSzNTczkc9d"?>
<x:xmpmeta xmlns:x="adobe:ns:meta/" x:xmptk="Adobe XMP Core 5.6-c140 79.160451, 2017/05/06-01:08:21        ">
   <rdf:RDF xmlns:rdf="http://www.w3.org/1999/02/22-rdf-syntax-ns#">
      <rdf:Description rdf:about=""/>
   </rdf:RDF>
</x:xmpmeta>
                                                                                                    
                                                                                                    
                                                                                                    
                                                                                                    
                                                                                                    
                                                                                                    
                                                                                                    
                                                                                                    
                                                                                                    
                                                                                                    
                                                                                                    
                                                                                                    
                                                                                                    
                                                                                                    
                                                                                                    
                                                                                                    
                                                                                                    
                                                                                                    
                                                                                                    
                                                                                                    
                           
<?xpacket end="w"?></metadata>
<defs>
    <style>
      .cls-1 {
        fill: #20adff;
        fill-rule: evenodd;
      }
    </style>
  </defs>
  <path id="logo_-_Twitter_copy_3" data-name="logo - Twitter copy 3" class="cls-1" d="M1049.49,1508.2l-2.25,2.21v0.37a4.449,4.449,0,0,1-.16,1.16,12.905,12.905,0,0,1-5.09,10.26c-7.96,6.26-16.5.74-16.5,0.74,6.75,0,6.75-2.21,6.75-2.21-1.5,0-4.5-2.95-4.5-2.95,0.75,0.74,2.25,0,2.25,0-3.75-2.21-3.75-4.42-3.75-4.42,0.75,0.73,2.25,0,2.25,0a5.026,5.026,0,0,1-1.5-6.63c0.75,3.68,10.5,5.15,10.5,5.15l0.13-.06a8.124,8.124,0,0,1-.13-1.41c0-2.64,2.18-4.42,4.88-4.42a4.844,4.844,0,0,1,3.68,1.69l0.44-.22,2.25-1.47-1.5,2.95Z" transform="translate(-1025.5 -1506)"/>
</svg>
